<?xml version="1.0" standalone="no"?><!DOCTYPE svg PUBLIC "-//W3C//DTD SVG 1.1//EN" "http://www.w3.org/Graphics/SVG/1.1/DTD/svg11.dtd"><svg t="1554857978202" class="icon" style="" viewBox="0 0 1024 1024" version="1.1" xmlns="http://www.w3.org/2000/svg" p-id="2088" xmlns:xlink="http://www.w3.org/1999/xlink" width="32" height="32"><defs><style type="text/css"></style></defs><path d="M816 880H208a64 64 0 0 1-64-64V288a64 64 0 0 1 64-64h64v-16a64 64 0 0 1 64-64h480a64 64 0 0 1 64 64v608a64 64 0 0 1-64 64z m32-672a32 32 0 0 0-32-32H336a32 32 0 0 0-32 32v528h-32V256h-64a32 32 0 0 0-32 32v528a32 32 0 0 0 32 32h608a32 32 0 0 0 32-32V208zM384 704h384v32H384v-32z m0-96h384v32H384v-32z m0-96h384v32H384v-32z m256-96h128v32h-128v-32z m0-80h128v32h-128v-32z m0-80h128v32h-128v-32z m-256 0h192v192H384V256z m32 160h128v-128h-128v128z" fill="#333333" p-id="2089"></path></svg>